HIERARCHY
ROOT Hips
{
	OFFSET 0.000000 0.000000 0.000000
	CHANNELS 6 Xposition Yposition Zposition Xrotation Yrotation Zrotation
	JOINT LeftUpLeg_virtual
	{
		OFFSET 0.000000 0.000000 0.000000
		CHANNELS 3 Xrotation Yrotation Zrotation
		JOINT LeftUpLeg
		{
			OFFSET 13.026900 -6.336304 -1.092800
			CHANNELS 3 Xrotation Yrotation Zrotation
			JOINT LeftLeg
			{
				OFFSET 0.524474 -46.096886 9.782700
				CHANNELS 3 Xrotation Yrotation Zrotation
				JOINT LeftFoot
				{
					OFFSET -0.524474 -53.427422 -12.948200
					CHANNELS 3 Xrotation Yrotation Zrotation
					JOINT LeftToeBase
					{
						OFFSET 0.192200 -14.009700 16.364100
						CHANNELS 3 Xrotation Yrotation Zrotation
						JOINT LeftToe_End
						{
							OFFSET -1.784700 -0.561700 9.474800
							CHANNELS 3 Xrotation Yrotation Zrotation
							End Site
							{
								OFFSET 0 0 0
							}
						}
					}
				}
			}
		}
	}
	JOINT RightUpLeg_virtual
	{
		OFFSET 0.000000 0.000000 0.000000
		CHANNELS 3 Xrotation Yrotation Zrotation
		JOINT RightUpLeg
		{
			OFFSET -12.883000 -6.336304 -1.092800
			CHANNELS 3 Xrotation Yrotation Zrotation
			JOINT RightLeg
			{
				OFFSET -0.524587 -46.096825 9.782800
				CHANNELS 3 Xrotation Yrotation Zrotation
				JOINT RightFoot
				{
					OFFSET 0.524587 -53.427383 -12.948300
					CHANNELS 3 Xrotation Yrotation Zrotation
					JOINT RightToeBase
					{
						OFFSET -0.192200 -14.009700 16.364100
						CHANNELS 3 Xrotation Yrotation Zrotation
						JOINT RightToe_End
						{
							OFFSET 1.784700 -0.561700 9.474800
							CHANNELS 3 Xrotation Yrotation Zrotation
							End Site
							{
								OFFSET 0 0 0
							}
						}
					}
				}
			}
		}
	}
	JOINT Spine_virtual
	{
		OFFSET 0.000000 0.000000 0.000000
		CHANNELS 3 Xrotation Yrotation Zrotation
		JOINT Spine
		{
			OFFSET 0.072000 7.257294 -0.789700
			CHANNELS 3 Xrotation Yrotation Zrotation
			JOINT Spine1
			{
				OFFSET 0.000000 12.508769 -0.658067
				CHANNELS 3 Xrotation Yrotation Zrotation
				JOINT Spine1_split
				{
					OFFSET 0.000000 12.508769 -0.658067
					CHANNELS 3 Xrotation Yrotation Zrotation
					JOINT Spine2
					{
						OFFSET 0.000000 12.508769 -0.658067
						CHANNELS 3 Xrotation Yrotation Zrotation
						JOINT Neck_virtual
						{
							OFFSET 0.000000 0.000000 0.000000
							CHANNELS 3 Xrotation Yrotation Zrotation
							JOINT Neck
							{
								OFFSET 0.000000 14.033295 7.520400
								CHANNELS 3 Xrotation Yrotation Zrotation
								JOINT Head
								{
									OFFSET 0.000000 8.198502 5.703100
									CHANNELS 3 Xrotation Yrotation Zrotation
									JOINT HeadTop_End
									{
										OFFSET 0.000000 17.760803 13.332701
										CHANNELS 3 Xrotation Yrotation Zrotation
										End Site
										{
											OFFSET 0 0 0
										}
									}
								}
							}
						}
						JOINT LeftShoulder_virtual
						{
							OFFSET 0.000000 0.000000 0.000000
							CHANNELS 3 Xrotation Yrotation Zrotation
							JOINT LeftShoulder
							{
								OFFSET 6.292450 5.785301 -0.669000
								CHANNELS 3 Xrotation Yrotation Zrotation
								JOINT LeftShoulder_split
								{
									OFFSET 6.292450 5.785301 -0.669000
									CHANNELS 3 Xrotation Yrotation Zrotation
									JOINT LeftArm
									{
										OFFSET 13.907140 -6.093903 1.965100
										CHANNELS 3 Xrotation Yrotation Zrotation
										JOINT LeftForeArm
										{
											OFFSET 34.140198 0.000000 0.000000
											CHANNELS 3 Xrotation Yrotation Zrotation
											JOINT LeftHand
											{
												OFFSET 40.960209 0.000000 0.000000
												CHANNELS 3 Xrotation Yrotation Zrotation
												End Site
												{
													OFFSET 0 0 0
												}
											}
										}
									}
								}
							}
						}
						JOINT RightShoulder_virtual
						{
							OFFSET 0.000000 0.000000 0.000000
							CHANNELS 3 Xrotation Yrotation Zrotation
							JOINT RightShoulder
							{
								OFFSET -6.292450 5.785301 -0.669000
								CHANNELS 3 Xrotation Yrotation Zrotation
								JOINT RightShoulder_split
								{
									OFFSET -6.292450 5.785301 -0.669000
									CHANNELS 3 Xrotation Yrotation Zrotation
									JOINT RightArm
									{
										OFFSET -13.907140 -6.093903 1.965100
										CHANNELS 3 Xrotation Yrotation Zrotation
										JOINT RightForeArm
										{
											OFFSET -34.140198 0.000000 0.000000
											CHANNELS 3 Xrotation Yrotation Zrotation
											JOINT RightHand
											{
												OFFSET -40.960209 0.000000 0.000000
												CHANNELS 3 Xrotation Yrotation Zrotation
												End Site
												{
													OFFSET 0 0 0
												}
											}
										}
									}
								}
							}
						}
					}
				}
			}
		}
	}
}
MOTION
Frames: 7
Frame Time: 0.03333333
1.014154 112.779007 1.514309 0.000000 0.000000 0.000000 -1.540307 6.588333 1.032767 -4.785680 7.695465 6.842019 18.928373 -1.154301 -2.562572 -14.852822 1.111694 -6.076646 -0.957268 0.023319 0.226349 0.000000 0.000000 0.000000 -1.693657 5.742195 0.478765 -2.552005 -3.160508 -7.815330 20.687600 -6.442830 4.245839 -8.844542 -19.766822 4.214798 -4.614799 -0.143993 -0.216166 0.000000 0.000000 0.000000 -0.779536 4.879141 0.015274 -1.591803 -1.770998 -2.545995 0.686970 -0.253659 1.971165 1.767819 -1.441159 -0.094088 0.000000 0.000000 0.000000 0.204740 -0.122067 1.414928 7.418175 1.688384 -0.933707 -2.952350 -0.139659 2.517955 0.000000 0.000000 0.000000 0.803148 0.302459 1.075786 6.742322 -24.903592 -5.943694 -0.443509 -2.402962 -1.798526 6.834649 5.118599 -79.740348 -2.271648 -16.407617 1.739040 0.000000 0.000000 0.000000 0.607106 0.226933 1.988425 1.970466 -6.036803 9.378149 0.754083 6.295823 -0.666732 7.023880 18.128306 72.870120 1.455439 15.111418 -0.568536 0.000000 0.000000 0.000000 
0.848990 112.727257 1.357124 0.000000 0.000000 0.000000 -1.544007 6.711364 1.044388 -4.751773 7.870546 6.841001 18.961208 -1.218494 -2.601310 -14.925073 1.064410 -5.983487 -0.951013 0.018455 0.254087 0.000000 0.000000 0.000000 -1.686292 5.811363 0.484994 -2.593113 -3.209607 -7.770761 20.832034 -6.482513 4.258653 -8.917862 -19.736962 4.172592 -4.603124 -0.132432 -0.244480 0.000000 0.000000 0.000000 -0.799321 4.711969 0.146538 -1.615252 -1.774013 -2.599931 0.640361 -0.274587 1.934194 1.698925 -1.442862 -0.084896 0.000000 0.000000 0.000000 0.210957 -0.113156 1.378654 7.526325 1.710782 -1.074177 -2.922560 0.004668 2.386346 0.000000 0.000000 0.000000 0.779144 0.288588 1.047688 6.790390 -24.907490 -5.977609 -0.409794 -2.219000 -2.030105 6.736291 4.840766 -79.874992 -2.289009 -16.614649 1.715039 0.000000 0.000000 0.000000 0.578382 0.221731 2.002184 1.942914 -6.044129 9.364944 0.654577 6.604691 -0.721616 7.217621 18.000446 72.826373 1.508982 15.068246 -0.638673 0.000000 0.000000 0.000000 
0.682938 112.655945 1.297176 0.000000 0.000000 0.000000 -1.604280 6.800827 1.055621 -4.660928 8.019668 6.839472 18.906703 -1.282815 -2.603722 -14.968003 1.069846 -5.916876 -0.969647 0.013291 0.268817 0.000000 0.000000 0.000000 -1.665973 5.817184 0.499957 -2.627373 -3.167305 -7.772366 21.026304 -6.501483 4.289663 -8.806371 -19.669835 4.241933 -4.710547 -0.112867 -0.297719 0.000000 0.000000 0.000000 -0.855248 4.692754 0.277565 -1.608966 -1.746032 -2.647588 0.558166 -0.297133 1.887987 1.603951 -1.330838 0.003557 0.000000 0.000000 0.000000 0.201621 -0.110833 1.357221 7.545825 1.732721 -1.281938 -2.933468 -0.002639 2.288650 0.000000 0.000000 0.000000 0.731618 0.288011 1.036438 6.806663 -24.980056 -6.075314 -0.459309 -2.060015 -2.259324 6.869888 4.175543 -79.789143 -2.155107 -16.778824 1.705484 0.000000 0.000000 0.000000 0.548255 0.210797 1.988400 1.880488 -5.986556 9.420761 0.735589 6.792967 -0.839771 7.170557 18.004508 72.607670 1.508054 15.119587 -0.630734 0.000000 0.000000 0.000000 
0.547015 112.592354 1.363258 0.000000 0.000000 0.000000 -1.701824 6.799300 1.053528 -4.525598 8.111402 6.842556 18.773496 -1.304979 -2.562504 -14.958828 1.116317 -5.877419 -0.987376 0.009442 0.262060 0.000000 0.000000 0.000000 -1.624896 5.803793 0.510807 -2.628273 -3.066690 -7.792298 21.196906 -6.509424 4.322268 -8.579387 -19.570025 4.362011 -4.911347 -0.083788 -0.359554 0.000000 0.000000 0.000000 -0.901175 4.805009 0.371956 -1.555458 -1.709007 -2.681540 0.450776 -0.326702 1.840374 1.581012 -1.289092 0.167866 0.000000 0.000000 0.000000 0.174316 -0.115527 1.357634 7.499427 1.787076 -1.503051 -2.959958 -0.152931 2.245048 0.000000 0.000000 0.000000 0.652672 0.292142 1.048761 6.797377 -25.106455 -6.175563 -0.540523 -1.886748 -2.499366 7.177783 3.305919 -79.444560 -1.910658 -16.902492 1.672344 0.000000 0.000000 0.000000 0.499279 0.183730 1.951889 1.789010 -5.864532 9.575569 0.962821 6.779521 -0.900021 6.947167 18.108136 72.295667 1.453798 15.346084 -0.558441 0.000000 0.000000 0.000000 
0.469359 112.563499 1.526157 0.000000 0.000000 0.000000 -1.770177 6.715264 1.023606 -4.370388 8.095936 6.856948 18.593974 -1.262484 -2.467297 -14.906505 1.178618 -5.860022 -0.997001 0.007932 0.236557 0.000000 0.000000 0.000000 -1.572941 5.797056 0.500235 -2.610547 -2.985107 -7.812587 21.336148 -6.530547 4.349998 -8.304680 -19.447847 4.481840 -5.140040 -0.045401 -0.417005 0.000000 0.000000 0.000000 -0.910040 4.927260 0.402815 -1.433119 -1.679874 -2.690388 0.328778 -0.366908 1.799607 1.623400 -1.314925 0.258125 0.000000 0.000000 0.000000 0.120115 -0.131336 1.379294 7.406423 1.868953 -1.678576 -3.006044 -0.398811 2.258993 0.000000 0.000000 0.000000 0.550880 0.295481 1.082995 6.789190 -25.261562 -6.172689 -0.545821 -1.739948 -2.726719 7.596745 2.390763 -78.869854 -1.639998 -17.082385 1.574820 0.000000 0.000000 0.000000 0.417547 0.134173 1.900636 1.676048 -5.699855 9.805820 1.270966 6.604833 -0.920202 6.607377 18.293366 71.970967 1.364084 15.883296 -0.420843 0.000000 0.000000 0.000000 
0.441429 112.560753 1.713345 0.000000 0.000000 0.000000 -1.783684 6.586745 0.957750 -4.203366 7.921526 6.871597 18.420423 -1.142388 -2.305311 -14.854847 1.226274 -5.851832 -0.991760 0.007963 0.201709 0.000000 0.000000 0.000000 -1.527767 5.778998 0.459245 -2.617163 -2.991622 -7.825060 21.495541 -6.571862 4.378853 -8.023544 -19.301667 4.615088 -5.371167 -0.002273 -0.463286 0.000000 0.000000 0.000000 -0.887103 4.977462 0.356216 -1.214162 -1.669713 -2.669105 0.203529 -0.420111 1.769153 1.744114 -1.337572 0.336126 0.000000 0.000000 0.000000 0.028389 -0.156932 1.412384 7.288136 1.977952 -1.785300 -3.044061 -0.705133 2.333020 0.000000 0.000000 0.000000 0.426647 0.295486 1.133777 6.803903 -25.422444 -6.000935 -0.417843 -1.644686 -2.907863 7.993761 1.569844 -78.170210 -1.395454 -17.296872 1.396189 0.000000 0.000000 0.000000 0.299176 0.070546 1.841682 1.554280 -5.517190 10.056175 1.666545 6.338566 -0.873707 6.197664 18.524148 71.711017 1.269242 16.727774 -0.231943 0.000000 0.000000 0.000000 
0.480671 112.553101 1.878880 0.000000 0.000000 0.000000 -1.753862 6.429528 0.868334 -4.037012 7.587089 6.853864 18.334910 -0.932460 -2.084099 -14.867823 1.237397 -5.854674 -0.977411 0.010717 0.162255 0.000000 0.000000 0.000000 -1.532575 5.706365 0.392585 -2.684552 -3.138279 -7.829693 21.753633 -6.628871 4.409977 -7.801828 -19.112247 4.780317 -5.637840 0.039958 -0.503527 0.000000 0.000000 0.000000 -0.853366 4.887688 0.248671 -0.876223 -1.689181 -2.619529 0.090537 -0.469107 1.753997 1.936873 -1.240492 0.299250 0.000000 0.000000 0.000000 -0.090787 -0.183779 1.446129 7.152334 2.103247 -1.808630 -3.040081 -1.035702 2.440090 0.000000 0.000000 0.000000 0.294976 0.295820 1.193015 6.849474 -25.525249 -5.650735 -0.169495 -1.605885 -3.049627 8.233354 0.898489 -77.507450 -1.186814 -17.601997 1.156386 0.000000 0.000000 0.000000 0.169531 0.008846 1.778685 1.428152 -5.337372 10.275896 2.104217 6.062320 -0.807420 5.700782 18.706273 71.494356 1.195502 17.670594 -0.023185 0.000000 0.000000 0.000000 
